# AST/ASF file generated using VICON BodyLanguage
# -----------------------------------------------
:version 1.10
:name VICON
:units
  mass 1.0
  length 0.45
  angle deg
:documentation
   .ast/.asf automatically generated from VICON data using
   VICON BodyBuilder and BodyLanguage model FoxedUp or BRILLIANT.MOD
:root
   order TX TY TZ RX RY RZ
   axis XYZ
   position 0 0 0  
   orientation 0 0 0 
:bonedata
  begin
     id 1 
     name lhipjoint
     direction 0.710188 -0.616876 0.339259 
     length 2.5669 
     axis 0 0 0  XYZ
  end
  begin
     id 2 
     name lfemur
     direction 0.34202 -0.939693 0  
     length 7.12796  
     axis 0 0 20  XYZ
    dof rx ry rz
    limits (-160.0 20.0)
           (-70.0 70.0)
           (-60.0 70.0)
  end
  begin
     id 3 
     name ltibia
     direction 0.34202 -0.939693 0   
     length 7.58108   
     axis 0 0 20   XYZ
    dof rx
    limits (-10.0 170.0)
  end
  begin
     id 4 
     name lfoot
     direction 0.0669471 -0.183936 0.980656   
     length 2.17365   
     axis -90 7.62852e-016 20   XYZ
    dof rx rz
    limits (-45.0 90.0)
           (-70.0 20.0)
  end
  begin
     id 5 
     name ltoes
     direction 1.53508e-011 -4.21705e-011 1   
     length 1.09427   
     axis -90 7.62852e-016 20   XYZ
    dof rx
    limits (-90.0 20.0)
  end
  begin
     id 6 
     name rhipjoint
     direction -0.700191 -0.625589 0.34405   
     length 2.53115  
     axis 0 0 0  XYZ 
  end
  begin
     id 7 
     name rfemur
     direction -0.34202 -0.939693 0   
     length 7.33006   
     axis 0 0 -20   XYZ
    dof rx ry rz
    limits (-160.0 20.0)
           (-70.0 70.0)
           (-70.0 60.0)
  end
  begin
     id 8 
     name rtibia
     direction -0.34202 -0.939693 0   
     length 7.64926   
     axis 0 0 -20   XYZ
    dof rx
    limits (-10.0 170.0)
 end
 begin
     id 9 
     name rfoot
     direction -0.0688927 -0.189281 0.979503   
     length 2.20493  
     axis -90 -7.62852e-016 -20   XYZ
    dof rx rz
    limits (-45.0 90.0)
           (-20.0 70.0)
  end
  begin
     id 10 
     name rtoes
     direction -1.53567e-011 -4.21933e-011 1   
     length 1.10919   
     axis -90 -7.62852e-016 -20   XYZ
    dof rx
    limits (-90.0 20.0)
  end
  begin
     id 11 
     name lowerback
     direction -0.0167868 0.989873 -0.140959   
     length 2.14596   
     axis 0 0 0   XYZ
    dof rx ry rz
    limits (-20.0 45.0)
           (-30.0 30.0)
           (-30.0 30.0)
  end
  begin
     id 12 
     name upperback
     direction 0.0129109 0.998033 0.0613525   
     length 2.10457   
     axis 0 0 0   XYZ
    dof rx ry rz
    limits (-20.0 45.0)
           (-30.0 30.0)
           (-30.0 30.0)
  end
  begin
     id 13 
     name thorax
     direction 0.0177047 0.991119 0.131797   
     length 2.17652   
     axis 0 0 0   XYZ
    dof rx ry rz
    limits (-20.0 45.0)
           (-30.0 30.0)
           (-30.0 30.0)
  end
  begin
     id 14 
     name lowerneck
     direction -0.0336893 0.997548 0.0613464   
     length 1.8912   
     axis 0 0 0   XYZ
    dof rx ry rz
    limits (-20.0 45.0)
           (-30.0 30.0)
           (-30.0 30.0)
  end
  begin
     id 15 
     name upperneck
     direction 0.0435909 0.997179 -0.0611028   
     length 1.8829   
     axis 0 0 0   XYZ
    dof rx ry rz
    limits (-20.0 45.0)
           (-30.0 30.0)
           (-30.0 30.0)
  end
  begin
     id 16
     name head
     direction 0.0175076 0.999444 -0.0283782  
     length 1.93197  
     axis 0 0 0   XYZ
    dof rx ry rz
    limits (-20.0 45.0)
           (-30.0 30.0)
           (-30.0 30.0)
  end
  begin
     id 17 
     name lclavicle
     direction 0.919164 0.389875 0.0559876  
     length 3.60004  
     axis 0 0 0   XYZ
    dof ry rz
    limits (-20.0 10.0)
           (0.0 20.0)
  end
  begin
     id 18 
     name lhumerus
     direction 1 -4.48958e-011 6.89191e-027   
     length 5.43301   
     axis 180 -30 -90   XYZ
    dof rx ry rz
    limits (-60.0 90.0)
           (-90.0 90.0)
           (-90.0 90.0)
  end
  begin
     id 19
     name lradius
     direction 1 -4.4897e-011 3.24727e-027   
     length 3.15936   
     axis 180 -30 -90   XYZ
    dof rx
    limits (-10.0 170.0)
  end
  begin
     id 20
     name lwrist
     direction 1 -4.4897e-011 9.00228e-027   
     length 1.57968   
     axis -6.29373e-015 90 90   XYZ
    dof ry
    limits (-180.0 0.0)
 end
  begin
     id 21 
     name lhand
     direction 1 -4.48968e-011 1.80042e-026   
     length 0.712827   
     axis -1.14882e-014 90 90   XYZ
    dof rx rz
    limits (-90.0 90.0)
           (-45.0 45.0)
  end
  begin
     id 22 
     name lfingers
     direction 1 -4.49019e-011 3.60267e-026   
     length 0.574699   
     axis -2.29769e-014 90 90   XYZ
    dof rx
    limits (0.0 90.0)
  end
  begin
     id 23
     name lthumb
     direction 0.707107 -6.3498e-011 0.707107   
     length 0.825157   
     axis -90 45 5.37419e-014   XYZ
    dof rx rz
    limits (-45.0 45.0)
           (-45.0 45.0)
  end
  begin
     id 24 
     name rclavicle
     direction -0.890334 0.455305 -0.00132111   
     length 3.51494  
     axis 0 0 0   XYZ 
    dof ry rz
    limits (-10.0 20.0)
           (-20.0 0.0)
  end
  begin
     id 25 
     name rhumerus
     direction -1 -4.48967e-011 5.07175e-028  
     length 5.34194   
     axis 180 30 90   XYZ
    dof rx ry rz
    limits (-90.0 60.0)
           (-90.0 90.0)
           (-90.0 90.0)
  end
  begin
     id 26 
     name rradius
     direction -1 -4.48955e-011 3.30467e-027   
     length 3.19351   
     axis 180 30 90   XYZ
    dof rx
    limits (-10.0 170.0)
  end
  begin
     id 27 
     name rwrist
     direction -1 -4.48968e-011 9.00208e-027   
     length 1.59676   
     axis -6.29373e-015 -90 -90   XYZ
    dof ry
    limits (-180.0 0.0)
  end
  begin
     id 28
     name rhand
     direction -1 -4.49e-011 1.80099e-026   
     length 0.743862   
     axis -1.14882e-014 -90 -90   XYZ
    dof rx rz
    limits (-90.0 90.0)
           (-45.0 45.0)
  end
  begin
     id 29
     name rfingers
     direction -1 -4.49009e-011 3.6023e-026   
     length 0.599721   
     axis -2.29769e-014 -90 -90   XYZ
    dof rx
    limits (0.0 90.0)
  end
  begin
     id 30
     name rthumb
     direction -0.707107 -6.35025e-011 0.707107   
     length 0.861083   
     axis -90 -45 -5.37419e-014   XYZ
    dof rx rz
    limits (-45.0 45.0)
           (-45.0 45.0)
  end
:hierarchy
  begin
    root lhipjoint rhipjoint lowerback
    lhipjoint lfemur
    lfemur ltibia
    ltibia lfoot
    lfoot ltoes
    rhipjoint rfemur
    rfemur rtibia
    rtibia rfoot
    rfoot rtoes
    lowerback upperback
    upperback thorax
    thorax lowerneck lclavicle rclavicle
    lowerneck upperneck
    upperneck head
    lclavicle lhumerus
    lhumerus lradius
    lradius lwrist
    lwrist lhand lthumb
    lhand lfingers
    rclavicle rhumerus
    rhumerus rradius
    rradius rwrist
    rwrist rhand rthumb
    rhand rfingers
  end

#!OML:ASF H:\Martial Arts Walks\Project 1\Capture day 1\Session 1\male.ASF
:FULLY-SPECIFIED
:DEGREES
169
root -0.873831 11.4543 11.2568 9.30277 1.61618 -1.78824
lowerback 19.104 1.54269 -2.23763
upperback -3.65002 1.68462 1.15852
thorax -15.0874 1.03685 2.06113
lowerneck -9.14031 -3.22907 -5.69022
upperneck 7.54655 -4.06978 5.05694
head 3.96444 -1.91384 2.21833
rclavicle -1.72694e-015 1.2424e-015
rhumerus 39.9846 -2.71889 -62.9724
rradius 93.9842
rwrist 20.6906
rhand 1.06779 -13.9562
rfingers 7.12502
rthumb 26.6127 -42.1059
lclavicle -1.72694e-015 1.2424e-015
lhumerus 42.4117 -4.71242 86.5242
lradius 87.537
lwrist -35.5898
lhand -10.8291 1.99039
lfingers 7.12502
lthumb 15.1851 31.4132
rfemur -73.9064 -5.3515 21.6477
rtibia 108.484
rfoot -33.2324 -17.6792
rtoes -13.1045
lfemur -74.5834 11.7363 -18.0056
ltibia 107.547
lfoot -31.3429 16.3283
ltoes -13.3327
170
root -0.874496 11.4546 11.2555 9.31481 1.62252 -1.77855
lowerback 19.1112 1.54232 -2.23742
upperback -3.64829 1.68337 1.15415
thorax -15.0894 1.03598 2.05634
lowerneck -9.14527 -3.22936 -5.68813
upperneck 7.53291 -4.06885 5.04782
head 3.96081 -1.91373 2.21523
rclavicle -1.49089e-015 -1.02374e-014
rhumerus 40.002 -2.73087 -62.9872
rradius 93.9888
rwrist 20.6851
rhand 1.04741 -13.9616
rfingers 7.12502
rthumb 26.5932 -42.1144
lclavicle -1.49089e-015 -1.02374e-014
lhumerus 42.4238 -4.70464 86.5307
lradius 87.5288
lwrist -35.5866
lhand -10.8511 1.98533
lfingers 7.12502
lthumb 15.1639 31.4097
rfemur -73.9273 -5.37275 21.6462
rtibia 108.482
rfoot -33.2268 -17.6626
rtoes -13.1256
lfemur -74.601 11.7297 -18.0176
ltibia 107.538
lfoot -31.328 16.3248
ltoes -13.3239
171
root -0.875136 11.4553 11.2544 9.32408 1.625 -1.76707
lowerback 19.1192 1.54389 -2.24005
upperback -3.6461 1.6839 1.14897
thorax -15.0916 1.0361 2.05166
lowerneck -9.14878 -3.23227 -5.68735
upperneck 7.52352 -4.07153 5.03913
head 3.95848 -1.91544 2.21224
rclavicle 1.49089e-016 -1.66979e-014
rhumerus 40.0166 -2.74334 -63.0058
rradius 93.9929
rwrist 20.6764
rhand 1.03778 -13.9698
rfingers 7.12502
rthumb 26.584 -42.1239
lclavicle 1.49089e-016 -1.66979e-014
lhumerus 42.4343 -4.69744 86.5395
lradius 87.5203
lwrist -35.5861
lhand -10.8774 1.98344
lfingers 7.12502
lthumb 15.1386 31.4097
rfemur -73.9408 -5.38823 21.6404
rtibia 108.477
rfoot -33.2249 -17.6444
rtoes -13.1372
lfemur -74.6109 11.7255 -18.0308
ltibia 107.527
lfoot -31.318 16.3173
ltoes -13.313
172
root -0.875725 11.4559 11.2534 9.33078 1.62259 -1.75672
lowerback 19.1273 1.54778 -2.24284
upperback -3.64339 1.6875 1.14384
thorax -15.0934 1.03763 2.04615
lowerneck -9.14974 -3.23637 -5.68761
upperneck 7.51632 -4.07594 5.03113
head 3.95652 -1.91803 2.20954
rclavicle 1.05604e-014 -1.21756e-014
rhumerus 40.0288 -2.75573 -63.026
rradius 93.9959
rwrist 20.6639
rhand 1.03458 -13.9779
rfingers 7.12502
rthumb 26.5809 -42.1325
lclavicle 1.05604e-014 -1.21756e-014
lhumerus 42.4443 -4.69053 86.5511
lradius 87.5109
lwrist -35.588
lhand -10.9075 1.98352
lfingers 7.12502
lthumb 15.1096 31.412
rfemur -73.9499 -5.39689 21.634
rtibia 108.472
rfoot -33.2239 -17.6307
rtoes -13.1524
lfemur -74.6171 11.726 -18.0419
ltibia 107.517
lfoot -31.3154 16.3055
ltoes -13.3012
173
root -0.876295 11.4566 11.2527 9.33476 1.6153 -1.74985
lowerback 19.136 1.55352 -2.2447
upperback -3.64034 1.69394 1.13967
thorax -15.0953 1.04042 2.04029
lowerneck -9.1516 -3.2409 -5.68856
upperneck 7.51494 -4.08108 5.02427
head 3.95656 -1.92092 2.20722
rclavicle -3.26255e-014 -1.54058e-015
rhumerus 40.0398 -2.76667 -63.0473
rradius 93.9955
rwrist 20.6543
rhand 1.03352 -13.9863
rfingers 7.12502
rthumb 26.5799 -42.141
lclavicle -3.26255e-014 -1.54058e-015
lhumerus 42.4522 -4.68387 86.5621
lradius 87.5025
lwrist -35.5888
lhand -10.9354 1.99145
lfingers 7.12502
lthumb 15.0827 31.422
rfemur -73.9538 -5.39582 21.629
rtibia 108.466
rfoot -33.2256 -17.6186
rtoes -13.1549
lfemur -74.6193 11.734 -18.0492
ltibia 107.509
lfoot -31.3163 16.2962
ltoes -13.2988
174
root -0.876856 11.4567 11.2523 9.33951 1.60437 -1.74976
lowerback 19.1402 1.55989 -2.2423
upperback -3.63719 1.70268 1.13756
thorax -15.0944 1.04397 2.03367
lowerneck -9.15463 -3.24524 -5.68854
upperneck 7.51907 -4.08609 5.01605
head 3.95841 -1.92377 2.2043
rclavicle 2.98177e-016 -1.3418e-014
rhumerus 40.0506 -2.77429 -63.0671
rradius 93.9912
rwrist 20.6491
rhand 1.03293 -13.9936
rfingers 7.12502
rthumb 26.5794 -42.1484
lclavicle 2.98177e-016 -1.3418e-014
lhumerus 42.4597 -4.67608 86.5736
lradius 87.4952
lwrist -35.5893
lhand -10.9613 2.00365
lfingers 7.12502
lthumb 15.0577 31.436
rfemur -73.9613 -5.38692 21.6308
rtibia 108.465
rfoot -33.2267 -17.6109
rtoes -13.1704
lfemur -74.6275 11.7494 -18.0492
ltibia 107.509
lfoot -31.3192 16.2869
ltoes -13.3023
175
root -0.877404 11.4562 11.252 9.34305 1.59172 -1.756
lowerback 19.1412 1.56657 -2.23479
upperback -3.63322 1.71335 1.13674
thorax -15.0906 1.04799 2.02504
lowerneck -9.16111 -3.24913 -5.68923
upperneck 7.53103 -4.09076 5.0108
head 3.96328 -1.92626 2.20235
rclavicle 8.82107e-015 -3.08116e-015
rhumerus 40.0601 -2.78079 -63.0841
rradius 93.9836
rwrist 20.6524
rhand 1.03263 -13.9971
rfingers 7.12502
rthumb 26.5791 -42.1519
lclavicle 8.82107e-015 -3.08116e-015
lhumerus 42.4654 -4.6702 86.584
lradius 87.4904
lwrist -35.5875
lhand -10.9887 2.01617
lfingers 7.12502
lthumb 15.0314 31.4505
rfemur -73.9696 -5.3723 21.6394
rtibia 108.466
rfoot -33.2247 -17.6117
rtoes -13.1794
lfemur -74.6374 11.7706 -18.0426
ltibia 107.516
lfoot -31.322 16.2835
ltoes -13.3153
